{
	"patcher" : 	{
		"fileversion" : 1,
		"appversion" : 		{
			"major" : 8,
			"minor" : 3,
			"revision" : 1,
			"architecture" : "x64",
			"modernui" : 1
		}
,
		"classnamespace" : "box",
		"rect" : [ 34.0, 115.0, 999.0, 719.0 ],
		"bglocked" : 0,
		"openinpresentation" : 1,
		"default_fontsize" : 12.0,
		"default_fontface" : 0,
		"default_fontname" : "Arial",
		"gridonopen" : 1,
		"gridsize" : [ 15.0, 15.0 ],
		"gridsnaponopen" : 1,
		"objectsnaponopen" : 1,
		"statusbarvisible" : 2,
		"toolbarvisible" : 1,
		"lefttoolbarpinned" : 0,
		"toptoolbarpinned" : 0,
		"righttoolbarpinned" : 0,
		"bottomtoolbarpinned" : 0,
		"toolbars_unpinned_last_save" : 0,
		"tallnewobj" : 0,
		"boxanimatetime" : 200,
		"enablehscroll" : 1,
		"enablevscroll" : 1,
		"devicewidth" : 0.0,
		"description" : "",
		"digest" : "",
		"tags" : "",
		"style" : "",
		"subpatcher_template" : "",
		"assistshowspatchername" : 0,
		"boxes" : [ 			{
				"box" : 				{
					"id" : "obj-6",
					"maxclass" : "newobj",
					"numinlets" : 0,
					"numoutlets" : 1,
					"outlettype" : [ "" ],
					"patching_rect" : [ 585.199999570846558, 378.666666448116302, 130.0, 22.0 ],
					"text" : "r patchbay-save_all"
				}

			}
, 			{
				"box" : 				{
					"id" : "obj-4",
					"maxclass" : "textbutton",
					"numinlets" : 1,
					"numoutlets" : 3,
					"outlettype" : [ "", "", "int" ],
					"parameter_enable" : 0,
					"patching_rect" : [ 449.666666805744171, 397.000009417533875, 100.0, 20.0 ],
					"presentation" : 1,
					"presentation_rect" : [ 304.0, 414.666666448116302, 100.0, 20.0 ],
					"text" : "Save"
				}

			}
, 			{
				"box" : 				{
					"id" : "obj-3",
					"maxclass" : "message",
					"numinlets" : 2,
					"numoutlets" : 1,
					"outlettype" : [ "" ],
					"patching_rect" : [ 449.666666805744171, 424.000009417533875, 50.0, 22.0 ],
					"text" : "write"
				}

			}
, 			{
				"box" : 				{
					"id" : "obj-2",
					"maxclass" : "newobj",
					"numinlets" : 0,
					"numoutlets" : 1,
					"outlettype" : [ "" ],
					"patching_rect" : [ 578.199999570846558, 342.666666448116302, 130.0, 22.0 ],
					"text" : "r patchbay-load_scene"
				}

			}
, 			{
				"box" : 				{
					"id" : "obj-1",
					"maxclass" : "newobj",
					"numinlets" : 0,
					"numoutlets" : 1,
					"outlettype" : [ "" ],
					"patching_rect" : [ 560.199999570846558, 94.0, 100.0, 22.0 ],
					"text" : "r patchbay-clear"
				}

			}
, 			{
				"box" : 				{
					"id" : "obj-44",
					"maxclass" : "newobj",
					"numinlets" : 1,
					"numoutlets" : 0,
					"patching_rect" : [ 422.199999570846558, 651.0, 162.0, 22.0 ],
					"text" : "send~ ch2"
				}

			}
, 			{
				"box" : 				{
					"id" : "obj-43",
					"maxclass" : "newobj",
					"numinlets" : 1,
					"numoutlets" : 1,
					"outlettype" : [ "signal" ],
					"patching_rect" : [ 98.199999570846558, 474.400006711483002, 155.0, 22.0 ],
					"text" : "receive~ 2-microphone-in-1"
				}

			}
, 			{
				"box" : 				{
					"id" : "obj-42",
					"maxclass" : "newobj",
					"numinlets" : 1,
					"numoutlets" : 0,
					"patching_rect" : [ 329.199999570846558, 692.0, 162.0, 22.0 ],
					"text" : "send~ ch1"
				}

			}
, 			{
				"box" : 				{
					"id" : "obj-41",
					"maxclass" : "newobj",
					"numinlets" : 1,
					"numoutlets" : 0,
					"patching_rect" : [ 230.199999570846558, 651.0, 162.0, 22.0 ],
					"text" : "send~ 1-spectral_freeze-in-1"
				}

			}
, 			{
				"box" : 				{
					"id" : "obj-40",
					"maxclass" : "newobj",
					"numinlets" : 1,
					"numoutlets" : 0,
					"patching_rect" : [ 134.199999570846558, 692.0, 114.0, 22.0 ],
					"text" : "send~ 1-xsynth-in-2"
				}

			}
, 			{
				"box" : 				{
					"id" : "obj-39",
					"maxclass" : "newobj",
					"numinlets" : 1,
					"numoutlets" : 0,
					"patching_rect" : [ 38.199999570846558, 658.0, 114.0, 22.0 ],
					"text" : "send~ 1-xsynth-in-1"
				}

			}
, 			{
				"box" : 				{
					"id" : "obj-38",
					"maxclass" : "newobj",
					"numinlets" : 1,
					"numoutlets" : 1,
					"outlettype" : [ "signal" ],
					"patching_rect" : [ 278.199999570846558, 541.600008070468903, 202.0, 22.0 ],
					"text" : "receive~ 1-spectral_freeze-out-1"
				}

			}
, 			{
				"box" : 				{
					"id" : "obj-37",
					"maxclass" : "newobj",
					"numinlets" : 1,
					"numoutlets" : 1,
					"outlettype" : [ "signal" ],
					"patching_rect" : [ 518.199999570846558, 536.80000764131546, 202.0, 22.0 ],
					"text" : "receive~ 2-proto_granulator-out-1"
				}

			}
, 			{
				"box" : 				{
					"id" : "obj-36",
					"maxclass" : "newobj",
					"numinlets" : 1,
					"numoutlets" : 1,
					"outlettype" : [ "signal" ],
					"patching_rect" : [ 458.199999570846558, 565.600008070468903, 202.0, 22.0 ],
					"text" : "receive~ 1-proto_granulator-out-1"
				}

			}
, 			{
				"box" : 				{
					"id" : "obj-35",
					"maxclass" : "newobj",
					"numinlets" : 1,
					"numoutlets" : 1,
					"outlettype" : [ "signal" ],
					"patching_rect" : [ 398.199999570846558, 479.200006783008575, 202.0, 22.0 ],
					"text" : "receive~ 2-player-out-1"
				}

			}
, 			{
				"box" : 				{
					"id" : "obj-34",
					"maxclass" : "newobj",
					"numinlets" : 1,
					"numoutlets" : 1,
					"outlettype" : [ "signal" ],
					"patching_rect" : [ 338.199999570846558, 512.80000764131546, 202.0, 22.0 ],
					"text" : "receive~ 1-player-out-1"
				}

			}
, 			{
				"box" : 				{
					"id" : "obj-33",
					"maxclass" : "newobj",
					"numinlets" : 1,
					"numoutlets" : 1,
					"outlettype" : [ "signal" ],
					"patching_rect" : [ 223.099999606609344, 450.400006711483002, 202.0, 22.0 ],
					"text" : "receive~ 1-sample_granulator-out-1"
				}

			}
, 			{
				"box" : 				{
					"id" : "obj-32",
					"maxclass" : "newobj",
					"numinlets" : 1,
					"numoutlets" : 1,
					"outlettype" : [ "signal" ],
					"patching_rect" : [ 158.199999570846558, 501.200007259845734, 134.0, 22.0 ],
					"text" : "receive~ 1-xsynth-out-1"
				}

			}
, 			{
				"box" : 				{
					"id" : "obj-30",
					"maxclass" : "newobj",
					"numinlets" : 1,
					"numoutlets" : 1,
					"outlettype" : [ "signal" ],
					"patching_rect" : [ 38.199999570846558, 530.200007259845734, 155.0, 22.0 ],
					"text" : "receive~ 1-microphone-in-1"
				}

			}
, 			{
				"box" : 				{
					"id" : "obj-29",
					"maxclass" : "textbutton",
					"numinlets" : 1,
					"numoutlets" : 3,
					"outlettype" : [ "", "", "int" ],
					"parameter_enable" : 0,
					"patching_rect" : [ 449.666666805744171, 342.666666448116302, 100.0, 20.0 ],
					"presentation" : 1,
					"presentation_rect" : [ 17.0, 414.666666448116302, 100.0, 20.0 ],
					"text" : "Erase"
				}

			}
, 			{
				"box" : 				{
					"id" : "obj-26",
					"maxclass" : "message",
					"numinlets" : 2,
					"numoutlets" : 1,
					"outlettype" : [ "" ],
					"patching_rect" : [ 449.666666805744171, 371.000009417533875, 50.0, 22.0 ],
					"text" : "clearall"
				}

			}
, 			{
				"box" : 				{
					"id" : "obj-25",
					"maxclass" : "comment",
					"numinlets" : 1,
					"numoutlets" : 0,
					"patching_rect" : [ 430.666668057441711, 305.500003039836884, 41.0, 20.0 ],
					"presentation" : 1,
					"presentation_rect" : [ 408.666668057441711, 287.500003039836884, 41.0, 20.0 ],
					"text" : "DAC2"
				}

			}
, 			{
				"box" : 				{
					"id" : "obj-24",
					"maxclass" : "comment",
					"numinlets" : 1,
					"numoutlets" : 0,
					"patching_rect" : [ 430.666668057441711, 256.833334922790527, 41.0, 20.0 ],
					"presentation" : 1,
					"presentation_rect" : [ 408.666668057441711, 238.833334922790527, 41.0, 20.0 ],
					"text" : "DAC1"
				}

			}
, 			{
				"box" : 				{
					"id" : "obj-23",
					"maxclass" : "comment",
					"numinlets" : 1,
					"numoutlets" : 0,
					"patching_rect" : [ 430.666668057441711, 203.5, 41.0, 20.0 ],
					"presentation" : 1,
					"presentation_rect" : [ 408.666668057441711, 185.5, 41.0, 20.0 ],
					"text" : "FRZ"
				}

			}
, 			{
				"box" : 				{
					"id" : "obj-22",
					"maxclass" : "comment",
					"numinlets" : 1,
					"numoutlets" : 0,
					"patching_rect" : [ 430.666668057441711, 153.666669607162476, 41.0, 20.0 ],
					"presentation" : 1,
					"presentation_rect" : [ 408.666668057441711, 135.666669607162476, 41.0, 20.0 ],
					"text" : "XS2"
				}

			}
, 			{
				"box" : 				{
					"id" : "obj-21",
					"maxclass" : "comment",
					"numinlets" : 1,
					"numoutlets" : 0,
					"patching_rect" : [ 430.666668057441711, 99.000001311302185, 41.0, 20.0 ],
					"presentation" : 1,
					"presentation_rect" : [ 408.666668057441711, 81.000001311302185, 41.0, 20.0 ],
					"text" : "XS1"
				}

			}
, 			{
				"box" : 				{
					"id" : "obj-20",
					"maxclass" : "comment",
					"numinlets" : 1,
					"numoutlets" : 0,
					"patching_rect" : [ 384.0, 55.0, 41.0, 20.0 ],
					"presentation" : 1,
					"presentation_rect" : [ 362.0, 37.0, 41.0, 20.0 ],
					"text" : "PGR2"
				}

			}
, 			{
				"box" : 				{
					"id" : "obj-19",
					"maxclass" : "comment",
					"numinlets" : 1,
					"numoutlets" : 0,
					"patching_rect" : [ 342.333334684371948, 55.0, 41.0, 20.0 ],
					"presentation" : 1,
					"presentation_rect" : [ 320.333334684371948, 37.0, 41.0, 20.0 ],
					"text" : "PGR1"
				}

			}
, 			{
				"box" : 				{
					"id" : "obj-18",
					"maxclass" : "comment",
					"numinlets" : 1,
					"numoutlets" : 0,
					"patching_rect" : [ 299.333334684371948, 55.0, 41.0, 20.0 ],
					"presentation" : 1,
					"presentation_rect" : [ 277.333334684371948, 37.0, 41.0, 20.0 ],
					"text" : "PL2"
				}

			}
, 			{
				"box" : 				{
					"id" : "obj-17",
					"maxclass" : "comment",
					"numinlets" : 1,
					"numoutlets" : 0,
					"patching_rect" : [ 254.0, 55.0, 41.0, 20.0 ],
					"presentation" : 1,
					"presentation_rect" : [ 232.0, 37.0, 41.0, 20.0 ],
					"text" : "PL1"
				}

			}
, 			{
				"box" : 				{
					"id" : "obj-16",
					"maxclass" : "comment",
					"numinlets" : 1,
					"numoutlets" : 0,
					"patching_rect" : [ 211.0, 55.0, 41.0, 20.0 ],
					"presentation" : 1,
					"presentation_rect" : [ 189.0, 37.0, 41.0, 20.0 ],
					"text" : "FRZ"
				}

			}
, 			{
				"box" : 				{
					"id" : "obj-15",
					"maxclass" : "comment",
					"numinlets" : 1,
					"numoutlets" : 0,
					"patching_rect" : [ 170.666668057441711, 55.0, 41.0, 20.0 ],
					"presentation" : 1,
					"presentation_rect" : [ 148.666668057441711, 37.0, 41.0, 20.0 ],
					"text" : "SGR"
				}

			}
, 			{
				"box" : 				{
					"id" : "obj-14",
					"maxclass" : "comment",
					"numinlets" : 1,
					"numoutlets" : 0,
					"patching_rect" : [ 124.0, 55.0, 41.0, 20.0 ],
					"presentation" : 1,
					"presentation_rect" : [ 102.0, 37.0, 41.0, 20.0 ],
					"text" : "XSYN"
				}

			}
, 			{
				"box" : 				{
					"id" : "obj-13",
					"maxclass" : "comment",
					"numinlets" : 1,
					"numoutlets" : 0,
					"patching_rect" : [ 81.0, 55.0, 41.0, 20.0 ],
					"presentation" : 1,
					"presentation_rect" : [ 59.0, 37.0, 41.0, 20.0 ],
					"text" : "ADC2"
				}

			}
, 			{
				"box" : 				{
					"id" : "obj-12",
					"maxclass" : "comment",
					"numinlets" : 1,
					"numoutlets" : 0,
					"patching_rect" : [ 38.0, 55.0, 41.0, 20.0 ],
					"presentation" : 1,
					"presentation_rect" : [ 16.0, 37.0, 41.0, 20.0 ],
					"text" : "ADC1"
				}

			}
, 			{
				"box" : 				{
					"id" : "obj-10",
					"maxclass" : "newobj",
					"numinlets" : 9,
					"numoutlets" : 6,
					"outlettype" : [ "signal", "signal", "signal", "signal", "signal", "" ],
					"patching_rect" : [ 38.199999570846558, 592.800000727176666, 499.0, 22.0 ],
					"text" : "matrix~ 9 5"
				}

			}
, 			{
				"box" : 				{
					"bubblesize" : 16,
					"fontsize" : 12.0,
					"id" : "obj-9",
					"maxclass" : "preset",
					"numinlets" : 1,
					"numoutlets" : 5,
					"outlettype" : [ "preset", "int", "preset", "int", "" ],
					"patching_rect" : [ 38.0, 350.0, 387.0, 73.0 ],
					"presentation" : 1,
					"presentation_rect" : [ 17.0, 334.0, 387.0, 73.0 ],
					"preset_data" : [ 						{
							"number" : 57,
							"data" : [ 139, "obj-5", "matrixctrl", "list", 0, 0, 0.0, 0, 1, 0.0, 0, 2, 0.0, 0, 3, 0.0, 0, 4, 0.0, 1, 0, 0.0, 1, 1, 0.0, 1, 2, 0.0, 1, 3, 0.0, 1, 4, 0.0, 2, 0, 0.0, 2, 1, 0.0, 2, 2, 0.0, 2, 3, 1.0, 2, 4, 1.0, 3, 0, 0.0, 3, 1, 0.0, 3, 2, 1.0, 3, 3, 0.0, 3, 4, 0.0, 4, 0, 1.0, 4, 1, 0.0, 4, 2, 0.0, 4, 3, 0.0, 4, 4, 0.0, 5, 0, 0.0, 5, 1, 1.0, 5, 2, 0.0, 5, 3, 0.0, 5, 4, 0.0, 6, 0, 0.0, 6, 1, 0.0, 6, 2, 0.0, 6, 3, 0.0, 6, 4, 1.0, 7, 0, 0.0, 7, 1, 0.0, 7, 2, 0.0, 7, 3, 0.0, 7, 4, 1.0, 8, 0, 0.0, 8, 1, 0.0, 8, 2, 0.0, 8, 3, 1.0, 8, 4, 0.0 ]
						}
 ]
				}

			}
, 			{
				"box" : 				{
					"id" : "obj-8",
					"maxclass" : "textbutton",
					"numinlets" : 1,
					"numoutlets" : 3,
					"outlettype" : [ "", "", "int" ],
					"parameter_enable" : 0,
					"patching_rect" : [ 445.0, 30.0, 100.0, 20.0 ],
					"presentation" : 1,
					"presentation_rect" : [ 16.0, 12.0, 100.0, 20.0 ],
					"text" : "Clear"
				}

			}
, 			{
				"box" : 				{
					"id" : "obj-7",
					"maxclass" : "message",
					"numinlets" : 2,
					"numoutlets" : 1,
					"outlettype" : [ "" ],
					"patching_rect" : [ 445.0, 55.0, 50.0, 22.0 ],
					"text" : "clear"
				}

			}
, 			{
				"box" : 				{
					"columns" : 9,
					"id" : "obj-5",
					"maxclass" : "matrixctrl",
					"numinlets" : 1,
					"numoutlets" : 2,
					"outlettype" : [ "list", "list" ],
					"parameter_enable" : 0,
					"patching_rect" : [ 38.0, 81.0, 387.0, 265.0 ],
					"presentation" : 1,
					"presentation_rect" : [ 17.0, 65.0, 387.0, 265.0 ],
					"rows" : 5
				}

			}
 ],
		"lines" : [ 			{
				"patchline" : 				{
					"destination" : [ "obj-7", 0 ],
					"source" : [ "obj-1", 0 ]
				}

			}
, 			{
				"patchline" : 				{
					"destination" : [ "obj-39", 0 ],
					"source" : [ "obj-10", 0 ]
				}

			}
, 			{
				"patchline" : 				{
					"destination" : [ "obj-40", 0 ],
					"source" : [ "obj-10", 1 ]
				}

			}
, 			{
				"patchline" : 				{
					"destination" : [ "obj-41", 0 ],
					"source" : [ "obj-10", 2 ]
				}

			}
, 			{
				"patchline" : 				{
					"destination" : [ "obj-42", 0 ],
					"source" : [ "obj-10", 3 ]
				}

			}
, 			{
				"patchline" : 				{
					"destination" : [ "obj-44", 0 ],
					"source" : [ "obj-10", 4 ]
				}

			}
, 			{
				"patchline" : 				{
					"destination" : [ "obj-9", 0 ],
					"source" : [ "obj-2", 0 ]
				}

			}
, 			{
				"patchline" : 				{
					"destination" : [ "obj-9", 0 ],
					"source" : [ "obj-26", 0 ]
				}

			}
, 			{
				"patchline" : 				{
					"destination" : [ "obj-26", 0 ],
					"source" : [ "obj-29", 0 ]
				}

			}
, 			{
				"patchline" : 				{
					"destination" : [ "obj-9", 0 ],
					"source" : [ "obj-3", 0 ]
				}

			}
, 			{
				"patchline" : 				{
					"destination" : [ "obj-10", 0 ],
					"source" : [ "obj-30", 0 ]
				}

			}
, 			{
				"patchline" : 				{
					"destination" : [ "obj-10", 2 ],
					"source" : [ "obj-32", 0 ]
				}

			}
, 			{
				"patchline" : 				{
					"destination" : [ "obj-10", 3 ],
					"source" : [ "obj-33", 0 ]
				}

			}
, 			{
				"patchline" : 				{
					"destination" : [ "obj-10", 5 ],
					"source" : [ "obj-34", 0 ]
				}

			}
, 			{
				"patchline" : 				{
					"destination" : [ "obj-10", 6 ],
					"source" : [ "obj-35", 0 ]
				}

			}
, 			{
				"patchline" : 				{
					"destination" : [ "obj-10", 7 ],
					"source" : [ "obj-36", 0 ]
				}

			}
, 			{
				"patchline" : 				{
					"destination" : [ "obj-10", 8 ],
					"source" : [ "obj-37", 0 ]
				}

			}
, 			{
				"patchline" : 				{
					"destination" : [ "obj-10", 4 ],
					"source" : [ "obj-38", 0 ]
				}

			}
, 			{
				"patchline" : 				{
					"destination" : [ "obj-3", 0 ],
					"source" : [ "obj-4", 0 ]
				}

			}
, 			{
				"patchline" : 				{
					"destination" : [ "obj-10", 1 ],
					"source" : [ "obj-43", 0 ]
				}

			}
, 			{
				"patchline" : 				{
					"destination" : [ "obj-10", 0 ],
					"source" : [ "obj-5", 0 ]
				}

			}
, 			{
				"patchline" : 				{
					"destination" : [ "obj-3", 0 ],
					"source" : [ "obj-6", 0 ]
				}

			}
, 			{
				"patchline" : 				{
					"destination" : [ "obj-5", 0 ],
					"source" : [ "obj-7", 0 ]
				}

			}
, 			{
				"patchline" : 				{
					"destination" : [ "obj-7", 0 ],
					"source" : [ "obj-8", 0 ]
				}

			}
 ],
		"bgcolor" : [ 0.356862745098039, 0.850980392156863, 0.556862745098039, 1.0 ]
	}

}
